<?xml version="1.0" standalone="no"?>
<!DOCTYPE svg PUBLIC "-//W3C//DTD SVG 20010904//EN"
 "http://www.w3.org/TR/2001/REC-SVG-20010904/DTD/svg10.dtd">
<svg version="1.0" xmlns="http://www.w3.org/2000/svg"
 viewBox="0 0 555.000000 159.000000"
 preserveAspectRatio="xMidYMid meet">

<g transform="translate(0.000000,159.000000) scale(0.100000,-0.100000)"
fill="#000000" stroke="none">
<path d="M585 1484 c-88 -13 -165 -26 -171 -28 -7 -3 -69 -74 -140 -158 -70
-84 -134 -161 -141 -170 -9 -10 -26 -96 -43 -214 l-29 -198 114 -201 115 -200
174 -87 173 -87 169 24 c93 14 183 27 201 30 27 5 56 34 175 178 l143 172 28
227 28 227 -107 188 c-59 103 -114 195 -123 204 -24 25 -319 119 -366 118 -22
-1 -112 -12 -200 -25z m349 -60 l140 -47 -83 -42 -83 -41 -184 26 c-181 26
-185 27 -219 60 -19 19 -33 35 -31 38 3 2 73 14 158 27 84 12 155 23 158 24 3
0 68 -20 144 -45z m-470 -63 l37 -38 -105 -211 -105 -211 -81 -61 c-45 -34
-84 -60 -86 -57 -3 3 5 74 17 158 l22 154 126 152 c69 84 128 153 131 153 3 0
23 -17 44 -39z m766 -191 l102 -180 -22 -188 c-13 -103 -26 -190 -29 -194 -3
-4 -57 35 -120 85 l-114 92 -53 235 c-29 129 -51 236 -51 236 2 2 180 92 183
93 1 1 48 -80 104 -179z m-509 105 c95 -14 173 -26 174 -28 4 -4 104 -462 102
-463 -30 -15 -342 -144 -351 -144 -13 0 -299 235 -304 249 -3 9 195 411 202
411 2 0 82 -11 177 -25z m-261 -547 l149 -123 0 -197 c1 -109 -1 -198 -4 -198
-3 0 -68 31 -144 69 l-138 70 -103 181 c-56 99 -101 183 -98 185 17 17 175
134 181 134 5 1 76 -54 157 -121z m690 -84 l119 -96 -126 -151 c-70 -84 -127
-153 -127 -154 -1 -1 -68 -11 -151 -22 -82 -12 -162 -24 -178 -27 l-27 -6 2
203 3 203 165 72 c91 40 173 73 183 73 10 1 71 -42 137 -95z"/>
<path d="M1973 1285 c-151 -33 -278 -130 -339 -259 -148 -313 46 -658 391
-695 137 -15 294 17 403 82 l52 31 -2 191 -3 190 -97 3 -98 3 0 -141 0 -141
-37 -16 c-26 -12 -67 -17 -128 -17 -79 -1 -97 2 -147 27 -106 52 -161 144
-161 267 0 178 123 300 302 300 90 0 132 -16 228 -86 22 -16 25 -14 90 50 l68
67 -40 34 c-117 103 -312 147 -482 110z"/>
<path d="M3890 1284 c-152 -32 -274 -126 -335 -256 -135 -285 6 -596 310 -683
117 -34 290 -19 395 35 43 22 140 97 140 108 0 4 -31 36 -69 70 l-69 62 -49
-40 c-148 -124 -375 -75 -459 97 -23 46 -28 69 -27 132 0 99 28 165 94 225
113 102 287 103 405 3 18 -15 36 -27 41 -27 5 0 37 29 72 64 l62 63 -47 41
c-116 103 -293 143 -464 106z"/>
<path d="M4860 1284 c-245 -53 -407 -265 -387 -508 22 -267 229 -449 512 -449
296 0 515 205 515 483 0 323 -303 547 -640 474z m234 -191 c61 -22 130 -88
159 -151 31 -68 31 -199 -1 -263 -29 -60 -86 -116 -142 -143 -65 -30 -188 -29
-251 2 -126 62 -190 199 -160 344 36 174 222 272 395 211z"/>
<path d="M2873 1055 c-236 -73 -335 -347 -201 -557 94 -149 313 -208 503 -137
83 31 173 121 204 204 29 74 31 189 7 261 -35 103 -120 186 -233 225 -67 23
-214 25 -280 4z m210 -169 c39 -16 82 -61 96 -99 27 -71 3 -196 -45 -239 -29
-25 -89 -48 -126 -48 -46 1 -109 31 -140 68 -52 62 -56 179 -9 255 40 66 147
96 224 63z"/>
</g>
</svg>
