<svg id="f9137908-6bbf-4c52-ba0f-98fb0eaeff95" data-name="a2a010e5-2b36-4989-a9ca-7b7a431e2de1" xmlns="http://www.w3.org/2000/svg" viewBox="0 0 278.9 298.38"><title>logo2</title><path d="M139.38,298.38l-5.5-2.7A239.09,239.09,0,0,1,2.1,49.42l.74-5.59,4.68-3.15a238.73,238.73,0,0,1,263.58-2l4.79,3.11.78,5.67A237.53,237.53,0,0,1,278.89,81a239.13,239.13,0,0,1-134,214.7ZM26.21,58.34A214.1,214.1,0,0,0,139.4,270.44C209.14,233.74,253.88,160,253.89,81V80.9a212.62,212.62,0,0,0-1.28-24.33A213.73,213.73,0,0,0,26.21,58.34Z" transform="translate(0 0)"/><path d="M235.89,94.86a172.22,172.22,0,0,1-96.5,154.7,172.3,172.3,0,0,1-94.9-177.4,172.09,172.09,0,0,1,189.8-1.5A178.09,178.09,0,0,1,235.89,94.86Z" transform="translate(0 0)"/></svg>