<svg id="a2a010e5-2b36-4989-a9ca-7b7a431e2de1" data-name="fb1c81bc-1c19-46f6-bd48-9b50c8644c33" xmlns="http://www.w3.org/2000/svg" viewBox="0 0 1066.75 298.38"><title>logo1</title><g style="isolation:isolate"><path d="M464.41,76.59c0,1.39-1,2.19-3.11,2.42q-8.46.87-16.75,1.56-9.85,1.38-15,6.91-8.47,9.15-8.47,46.46,5.7,0,18,.35t18.48.34c2.76,0,4.15,1,4.15,3.11,0,3.23.11,8,.34,14.43s.35,11.14.35,14.25c0,2.19-1.16,3.28-3.46,3.28q-6,0-18.31-.61t-18.13-.6v51.65q0,12.09.86,36.62t.86,36.62q0,4.67-3.45,4.66H389.1c-3,0-4.49-1.78-4.49-5.35V173.84q0-4.67-10.54-4.49-11.4.18-12.09-.86-.53-.53-.52-6.39c0-2.53-.12-6.31-.35-11.32s-.34-8.78-.34-11.31,7.31-4,21.94-4.84q-.52-11.05-.52-18,0-30.57,10.88-44.74,9.68-12.78,28.33-20a94.47,94.47,0,0,1,34.72-6.56,2.48,2.48,0,0,1,2.42,1.9q.16.35,3,14.6T464.41,76.59Z" transform="translate(0.01 -37.04)"/><path d="M635.76,213.92q0,36.11-23.66,61.66Q587.91,302,552.16,302q-35.92,0-60.11-26.25-23.67-25.4-23.67-61.5t23.67-61.49q24.34-25.91,60.11-25.91,35.58,0,59.76,25.91Q635.77,178,635.76,213.92Zm-36.44.34q0-21.06-13-35.93-13.47-15.71-34.2-15.71t-34.37,15.54q-13,15-13,36.1,0,20.73,13.13,35.93,13.81,16.06,34.2,16.07,20.55,0,34.2-16.07Q599.32,235,599.32,214.26Z" transform="translate(0.01 -37.04)"/><path d="M756.33,266.26c0,2.53-.23,6-.69,10.36-.58,5.42-.92,8.93-1,10.54a13.23,13.23,0,0,1-.52,3.8,7.31,7.31,0,0,1-3.28,2.42q-14.16,6.74-44.56,6.73-40.43,0-40.42-36.62,0-14.67.69-44.13t.69-44.13q0-7.08-7.08-7.6-6.39,0-12.61-.18-3.63-.85-3.63-14.16a85.29,85.29,0,0,1,.69-10.54q.52-4.14,5.53-5c2.88,0,5.7-.05,8.46-.17q8-.34,8-7.08,0-6.92-.43-21.08t-.43-21.24q0-12.61,4.83-12.61,1.56,0,32.48,5.35c2.64.35,4,1.62,4,3.8q0,7.61-1.12,22.8t-1.13,22.81c0,3.34,1.56,5,4.67,5H750.8c2,0,2.94.7,2.94,2.08a57.72,57.72,0,0,1-.6,6.65,56.31,56.31,0,0,0-.61,6.82q0,2.59.17,7.95c.12,3.57.18,6.21.18,7.94,0,2.19-1.62,3.28-4.84,3.28q-6.91,0-20.9-.95t-20.9-1c-.92,0-1.62,3.29-2.07,9.85q-.87,12.27-.87,34.37V238.1q0,14.86,2.77,20.73,4.14,9,17.1,9c3.56,0,8.81-.78,15.71-2.33s12-2.33,15.38-2.33C755.64,263.15,756.33,264.18,756.33,266.26Z" transform="translate(0.01 -37.04)"/><path d="M879.84,135.84a211.84,211.84,0,0,1-2.59,34.55q-.53,4-3.46,4-3.63,0-11-.78c-4.89-.51-8.61-.77-11.14-.77q-21.76,0-27.81,12.26-3.63,7.43-3.63,30.92v19q0,9.67.78,29.37t.78,29.36q0,4.66-4,4.67-5.36,0-16.23-.18T785.35,298q-4,0-4-4.32,0-14,.43-42.15t.43-42.32q0-42.66-8-68.57a9.36,9.36,0,0,1-.34-2.07,3,3,0,0,1,2.25-2.94q6.38-.69,18-2.07,18.66-3.47,17.27-3.46,2.76,0,3.63,10.19t3.11,10.19a1.64,1.64,0,0,0,.86-.34l14.17-9a63.93,63.93,0,0,1,15.89-6.91q6.74-2.07,17.27-2.08Q879.83,132.21,879.84,135.84Z" transform="translate(0.01 -37.04)"/><path d="M1066.73,141.72a20.36,20.36,0,0,1-.51,3.1q-6.73,39.57-6.74,68.23,0,1.74,4.32,77.56L1064,293c.11,3.34-1.41,5-4.58,5a134.68,134.68,0,0,0-14.33,1.12,135.31,135.31,0,0,1-14.25,1.13q-3.29,0-5-12.1t-3.29-12.09q-1,0-9.32,6.74a102.11,102.11,0,0,1-19,12.61,60.06,60.06,0,0,1-27.3,6.91q-33.51,0-56.48-26.78Q888.65,250,888.65,216q0-38.34,21.93-63.39,23-26.08,60.46-26.09,26.43,0,46.12,18.31,2.94,3.47,9.15,10a1.5,1.5,0,0,0,1,.52q1,0,2.94-10.88c1.26-7.26,2.88-10.88,4.83-10.88q4.67,0,17.45,2.59Q1066.73,139.29,1066.73,141.72Zm-44,72.2q0-21.25-12.61-36.45-13.3-16.41-34-16.41T941.5,177.3q-13.31,15.54-13.3,36.62a53.64,53.64,0,0,0,13.3,36.27q13.82,16.06,34.55,16.07,20.21,0,33.86-16.41A54.51,54.51,0,0,0,1022.69,213.92Z" transform="translate(0.01 -37.04)"/></g><path d="M139.37,335.42l-5.5-2.7A239.09,239.09,0,0,1,2.09,86.46l.74-5.59,4.68-3.15a238.73,238.73,0,0,1,263.58-2l4.79,3.11.78,5.67a237.53,237.53,0,0,1,2.22,33.5,239.12,239.12,0,0,1-134,214.7ZM26.2,95.38a214.1,214.1,0,0,0,113.19,212.1c69.74-36.7,114.48-110.4,114.49-189.48v-.06a212.62,212.62,0,0,0-1.28-24.33A213.73,213.73,0,0,0,26.2,95.38Z" transform="translate(0.01 -37.04)"/><path d="M235.88,131.9a172.22,172.22,0,0,1-96.5,154.7,172.3,172.3,0,0,1-94.9-177.4,172.09,172.09,0,0,1,189.8-1.5A178.09,178.09,0,0,1,235.88,131.9Z" transform="translate(0.01 -37.04)"/></svg>